<svg width="211" height="137" viewBox="0 0 211 137" fill="none" xmlns="http://www.w3.org/2000/svg">
<path d="M2.56 79.6C1.96267 79.6 1.36533 79.472 0.768 79.216C0.256 78.8747 0 78.4053 0 77.808C0 77.1253 0.298667 76.6133 0.896 76.272C1.49333 75.8453 2.176 75.504 2.944 75.248C4.224 74.8213 5.33333 74.352 6.272 73.84C7.296 73.2427 7.808 72.0907 7.808 70.384V41.072C7.808 39.1947 7.50933 37.616 6.912 36.336C6.4 35.056 5.376 34.2453 3.84 33.904C3.49867 33.8187 3.15733 33.6053 2.816 33.264C2.56 32.9227 2.432 32.368 2.432 31.6C2.432 30.4053 2.85867 29.68 3.712 29.424C6.61333 28.7413 9.77067 27.8453 13.184 26.736C16.6827 25.5413 19.6693 24.304 22.144 23.024C22.4853 22.8533 22.8693 22.64 23.296 22.384C23.7227 22.128 24.1067 22 24.448 22C24.96 22 25.2587 22.1707 25.344 22.512C25.5147 22.768 25.6 23.1093 25.6 23.536C25.6 24.2187 25.472 25.328 25.216 26.864C25.0453 28.3147 24.96 29.6373 24.96 30.832C24.96 31.1733 24.96 31.5573 24.96 31.984C25.0453 32.4107 25.1307 32.6667 25.216 32.752C28.1173 29.936 31.0613 27.76 34.048 26.224C37.0347 24.688 40.4907 23.92 44.416 23.92C48.8533 23.92 52.5653 25.584 55.552 28.912C58.624 32.1547 60.16 36.592 60.16 42.224V70.384C60.16 72.0907 60.6293 73.2427 61.568 73.84C62.592 74.352 63.744 74.8213 65.024 75.248C65.7067 75.504 65.9374 76.0733 66.4494 76.5C66.7014 77 66.84 77.2589 67.1591 77.816C67.1591 78.4133 67.328 78.8747 66.816 79.216C66.3893 79.472 65.92 79.6 65.408 79.6C63.7013 79.6 62.08 79.5147 60.544 79.344C59.0933 79.2587 57.6427 79.1733 56.192 79.088C54.8267 79.0027 53.376 78.96 51.84 78.96C50.3893 78.96 48.9387 79.0027 47.488 79.088C46.0373 79.1733 44.5867 79.2587 43.136 79.344C41.6853 79.5147 40.1067 79.6 38.4 79.6C37.888 79.6 37.376 79.472 36.864 79.216C36.4373 78.8747 36.224 78.4053 36.224 77.808C36.224 77.1253 36.48 76.6133 36.992 76.272C37.504 75.8453 38.1013 75.504 38.784 75.248C40.064 74.8213 41.1307 74.352 41.984 73.84C42.8373 73.2427 43.264 72.0907 43.264 70.384V44.912C43.264 41.6693 42.496 39.152 40.96 37.36C39.5093 35.4827 37.5467 34.5013 35.072 34.416C33.1947 34.416 31.5307 34.7147 30.08 35.312C28.6293 35.9093 27.136 36.72 25.6 37.744C25.2587 38.0853 25.0027 38.4693 24.832 38.896C24.6613 39.3227 24.576 39.7493 24.576 40.176V70.384C24.576 72.0907 25.0453 73.2427 25.984 73.84C26.9227 74.352 27.9893 74.8213 29.184 75.248C30.8907 75.76 31.744 76.6133 31.744 77.808C31.744 78.32 31.5307 78.7467 31.104 79.088C30.6773 79.4293 30.1653 79.6 29.568 79.6C27.8613 79.6 26.2827 79.5147 24.832 79.344C23.3813 79.2587 22.016 79.1733 20.736 79.088C19.456 79.0027 18.048 78.96 16.512 78.96C15.0613 78.96 13.568 79.0027 12.032 79.088C10.5813 79.1733 9.04533 79.2587 7.424 79.344C5.888 79.5147 4.26667 79.6 2.56 79.6Z" fill="#F2F2F2"/>
<path d="M71.96 137.208C63.5973 137.208 57.0693 135.885 52.376 133.24C47.768 130.68 45.464 127.139 45.464 122.616C45.464 120.056 45.7627 117.965 46.36 116.344C46.9573 114.808 48.3227 113.272 50.456 111.736C52.0773 110.541 53.656 109.347 55.192 108.152C56.728 106.957 58.0507 105.976 59.16 105.208L65.432 107.384C62.7867 108.92 60.696 110.584 59.16 112.376C57.7093 114.168 56.984 116.259 56.984 118.648C56.984 122.147 58.4347 125.048 61.336 127.352C64.3227 129.656 68.0347 130.808 72.472 130.808C78.36 130.808 82.5413 129.656 85.016 127.352C86.552 125.816 87.7893 124.067 88.728 122.104C89.6667 120.227 90.136 118.307 90.136 116.344C90.136 114.979 89.6667 113.869 88.728 113.016C87.7893 112.163 86.0827 111.437 83.608 110.84C81.2187 110.243 77.848 109.731 73.496 109.304C64.6213 108.451 58.3067 106.787 54.552 104.312C50.7973 101.837 48.92 98.552 48.92 94.456C48.92 93.688 49.1333 92.92 49.56 92.152C50.072 91.2987 51.0107 90.4027 52.376 89.464C53.7413 88.44 54.9787 87.544 56.088 86.776C57.1973 85.9227 58.136 85.1547 58.904 84.472C59.672 83.704 60.184 83.0213 60.44 82.424L66.84 84.6C65.1333 85.1973 63.7253 86.008 62.616 87.032C61.592 88.056 61.08 88.952 61.08 89.72C61.08 90.6587 61.6347 91.4267 62.744 92.024C63.8533 92.6213 65.7307 93.1333 68.376 93.56C71.0213 93.9013 74.648 94.2427 79.256 94.584C88.472 95.352 95.1707 96.8027 99.352 98.936C103.533 100.984 105.624 104.013 105.624 108.024C105.624 111.523 104.643 114.979 102.68 118.392C100.717 121.891 98.1147 125.048 94.872 127.864C91.6293 130.765 88.0027 133.027 83.992 134.648C80.0667 136.355 76.056 137.208 71.96 137.208ZM73.624 82.296C76.3547 82.296 78.488 80.8027 80.024 77.816C81.6453 74.744 82.456 70.7333 82.456 65.784C82.456 62.6267 82.0293 59.896 81.176 57.592C80.408 55.2027 79.3413 53.368 77.976 52.088C76.6107 50.7227 74.9893 50.04 73.112 50.04C71.4907 50.04 69.9973 50.7227 68.632 52.088C67.2667 53.4533 66.1573 55.288 65.304 57.592C64.536 59.8107 64.152 62.4133 64.152 65.4C64.152 68.5573 64.5787 71.416 65.432 73.976C66.2853 76.536 67.4373 78.584 68.888 80.12C70.3387 81.5707 71.9173 82.296 73.624 82.296ZM72.216 87.928C68.4613 87.928 64.7493 87.032 61.08 85.24C57.496 83.3627 54.5093 80.8027 52.12 77.56C49.816 74.3173 48.664 70.6907 48.664 66.68C48.664 62.4133 49.8587 58.616 52.248 55.288C54.7227 51.96 57.9227 49.4 61.848 47.608C65.8587 45.7307 70.0827 44.792 74.52 44.792C77.1653 44.792 79.64 45.0907 81.944 45.688C84.3333 46.2853 86.936 46.7973 89.752 47.224C91.3733 47.5653 92.9947 47.8213 94.616 47.992C96.2373 48.1627 98.0293 48.248 99.992 48.248C101.272 48.248 102.552 48.2053 103.832 48.12C105.112 47.9493 106.179 47.864 107.032 47.864C108.397 47.864 109.08 48.8027 109.08 50.68C109.08 52.3013 108.525 53.8373 107.416 55.288C106.904 55.8853 106.349 56.184 105.752 56.184H102.296C100.077 56.184 98.584 56.5253 97.816 57.208C97.6453 57.3787 97.5173 57.592 97.432 57.848C97.3467 58.0187 97.2613 58.488 97.176 59.256C97.176 59.9387 97.176 61.2613 97.176 63.224C97.176 67.6613 96.024 71.7573 93.72 75.512C91.416 79.2667 88.3867 82.296 84.632 84.6C80.8773 86.8187 76.7387 87.928 72.216 87.928Z" fill="#F2F2F2"/>
<path d="M87.56 57.6C86.9627 57.6 86.3653 57.472 85.768 57.216C85.256 56.8747 85 56.4053 85 55.808C85 55.1253 85.2987 54.6133 85.896 54.272C86.4933 53.8453 87.176 53.504 87.944 53.248C89.224 52.8213 90.3333 52.352 91.272 51.84C92.296 51.2427 92.808 50.0907 92.808 48.384V19.072C92.808 17.1947 92.552 15.616 92.04 14.336C91.528 12.9707 90.4613 12.16 88.84 11.904C88.4987 11.8187 88.1573 11.6053 87.816 11.264C87.56 10.9227 87.432 10.368 87.432 9.6C87.432 8.40534 87.8587 7.68 88.712 7.424C90.8453 6.912 93.064 6.31467 95.368 5.632C97.7573 4.864 100.019 4.096 102.152 3.328C104.371 2.47467 106.291 1.57867 107.912 0.639999C108.168 0.554667 108.424 0.426668 108.68 0.256001C108.936 0.0853335 109.192 0 109.448 0C110.216 0 110.6 0.469334 110.6 1.408C110.6 2.09067 110.472 3.24267 110.216 4.864C110.045 6.48533 109.96 7.89333 109.96 9.088C109.96 9.94133 110.045 10.4533 110.216 10.624H110.472C113.117 8.064 115.976 5.97333 119.048 4.352C122.12 2.73067 125.619 1.92 129.544 1.92C132.189 1.92 134.621 2.85867 136.84 4.736C139.059 6.528 140.723 8.87467 141.832 11.776H142.344C144.904 8.704 147.763 6.31467 150.92 4.608C154.163 2.816 157.789 1.92 161.8 1.92C164.445 1.92 166.835 2.688 168.968 4.224C171.101 5.67467 172.808 7.76534 174.088 10.496C175.368 13.2267 176.008 16.4693 176.008 20.224V48.384C176.008 50.0907 176.477 51.2427 177.416 51.84C178.44 52.352 179.592 52.8213 180.872 53.248C181.555 53.504 182.152 53.8453 182.664 54.272C183.176 54.6133 183.432 55.1253 183.432 55.808C183.432 56.4053 183.219 56.8747 182.792 57.216C182.365 57.472 181.853 57.6 181.256 57.6C179.549 57.6 177.928 57.5147 176.392 57.344C174.941 57.2587 173.491 57.1733 172.04 57.088C170.675 57.0027 169.224 56.96 167.688 56.96C166.237 56.96 164.872 57.0027 163.592 57.088C162.312 57.1733 161.032 57.2587 159.752 57.344C158.472 57.5147 156.979 57.6 155.272 57.6C154.675 57.6 154.163 57.472 153.736 57.216C153.309 56.8747 153.096 56.4053 153.096 55.808C153.096 55.1253 153.309 54.5707 153.736 54.144C154.248 53.7173 154.888 53.4187 155.656 53.248C156.765 52.9067 157.619 52.48 158.216 51.968C158.813 51.3707 159.112 50.432 159.112 49.152V22.912C159.112 20.7787 158.813 18.944 158.216 17.408C157.619 15.872 156.765 14.6773 155.656 13.824C154.632 12.8853 153.437 12.416 152.072 12.416C150.963 12.416 149.725 12.672 148.36 13.184C147.08 13.6107 145.8 14.3787 144.52 15.488C143.325 16.512 142.728 18.304 142.728 20.864V48.384C142.728 50.0907 143.069 51.2427 143.752 51.84C144.435 52.352 145.416 52.8213 146.696 53.248C147.379 53.4187 147.976 53.7173 148.488 54.144C149 54.5707 149.256 55.1253 149.256 55.808C149.256 56.4053 149 56.8747 148.488 57.216C148.061 57.472 147.592 57.6 147.08 57.6C145.373 57.6 143.837 57.5147 142.472 57.344C141.107 57.2587 139.784 57.1733 138.504 57.088C137.309 57.0027 135.944 56.96 134.408 56.96C132.957 56.96 131.592 57.0027 130.312 57.088C129.117 57.1733 127.837 57.2587 126.472 57.344C125.192 57.5147 123.699 57.6 121.992 57.6C121.48 57.6 121.011 57.472 120.584 57.216C120.157 56.8747 119.944 56.4053 119.944 55.808C119.944 55.1253 120.157 54.6133 120.584 54.272C121.096 53.8453 121.693 53.504 122.376 53.248C123.571 52.8213 124.467 52.352 125.064 51.84C125.661 51.328 125.96 50.432 125.96 49.152V22.912C125.96 20.7787 125.661 18.9867 125.064 17.536C124.467 16 123.656 14.8053 122.632 13.952C121.608 13.0133 120.371 12.544 118.92 12.544C117.896 12.544 116.701 12.7573 115.336 13.184C114.056 13.6107 112.691 14.336 111.24 15.36C110.131 16.128 109.576 17.792 109.576 20.352V48.384C109.576 49.92 109.832 51.0293 110.344 51.712C110.941 52.3093 111.88 52.8213 113.16 53.248C113.843 53.504 114.397 53.8453 114.824 54.272C115.336 54.6133 115.592 55.1253 115.592 55.808C115.592 56.32 115.379 56.7467 114.952 57.088C114.525 57.4293 114.056 57.6 113.544 57.6C111.837 57.6 110.301 57.5147 108.936 57.344C107.656 57.2587 106.376 57.1733 105.096 57.088C103.901 57.0027 102.536 56.96 101 56.96C99.5493 56.96 98.0987 57.0027 96.648 57.088C95.2827 57.1733 93.832 57.2587 92.296 57.344C90.8453 57.5147 89.2667 57.6 87.56 57.6Z" fill="#F2F2F2"/>
<path d="M179.048 102.6C178.536 102.6 178.067 102.472 177.64 102.216C177.213 101.875 177 101.448 177 100.936C177 100.253 177.213 99.6987 177.64 99.272C178.067 98.8453 178.621 98.5467 179.304 98.376C181.523 97.864 183.059 97.3093 183.912 96.712C184.851 96.0293 185.32 95.0053 185.32 93.64V65.992C185.32 63.0907 184.851 61.0427 183.912 59.848C183.059 58.568 181.693 57.8 179.816 57.544C179.304 57.4587 178.92 57.2027 178.664 56.776C178.408 56.3493 178.28 55.8373 178.28 55.24C178.28 53.96 178.749 53.2347 179.688 53.064C184.125 52.2107 188.051 51.016 191.464 49.48C194.963 47.944 197.651 46.7493 199.528 45.896C200.893 45.2133 201.747 44.872 202.088 44.872C203.197 44.872 203.752 45.384 203.752 46.408C203.667 47.8587 203.453 49.6933 203.112 51.912C202.856 54.0453 202.6 56.264 202.344 58.568C202.173 60.872 202.088 63.0907 202.088 65.224V93.512C202.088 94.7067 202.515 95.6453 203.368 96.328C204.307 97.0107 205.928 97.6933 208.232 98.376C208.915 98.632 209.469 98.9307 209.896 99.272C210.323 99.6133 210.536 100.125 210.536 100.808C210.536 101.917 209.896 102.472 208.616 102.472C206.995 102.472 205.288 102.429 203.496 102.344C201.704 102.259 199.955 102.173 198.248 102.088C196.627 102.003 195.048 101.96 193.512 101.96C192.061 101.96 190.525 102.003 188.904 102.088C187.368 102.173 185.747 102.259 184.04 102.344C182.419 102.515 180.755 102.6 179.048 102.6ZM193.128 39.112C190.483 39.112 188.136 38.1307 186.088 36.168C184.125 34.2053 183.144 31.8587 183.144 29.128C183.144 26.2267 184.125 23.7947 186.088 21.832C188.136 19.8693 190.483 18.888 193.128 18.888C196.115 18.888 198.589 19.8693 200.552 21.832C202.515 23.7947 203.496 26.2267 203.496 29.128C203.496 31.8587 202.515 34.2053 200.552 36.168C198.589 38.1307 196.115 39.112 193.128 39.112Z" fill="#F2F2F2"/>
</svg>
